<svg xmlns="http://www.w3.org/2000/svg" xmlns:xlink="http://www.w3.org/1999/xlink" xml:space="preserve" style="shape-rendering:geometricPrecision;text-rendering:geometricPrecision;image-rendering:optimizeQuality;" viewBox="0 0 0.31811 0.10224" x="0px" y="0px" fill-rule="evenodd" clip-rule="evenodd"><defs><style type="text/css">
   
    .fil0 {fill:black}
   
  </style></defs><g><polygon class="fil0" points="0.0339724,0.0475945 0.284134,0.0475945 0.284134,0.0546496 0.0339724,0.0546496 "></polygon><path class="fil0" d="M0.0247165 0c0.00310236,0 0.00563386,0.0025315 0.00563386,0.00562992l0 0.0910512c0,0.00740551 -0.0112638,0.00740945 -0.0112638,0l0 -0.0910512c0,-0.00309843 0.0025315,-0.00562992 0.00562992,-0.00562992z"></path><path class="fil0" d="M0.013185 0.012248c-0.00231496,0 -0.00420866,0.0018937 -0.00420866,0.00420866l0 0.0680866c0,0.00554331 0.00842126,0.00553937 0.00842126,0l0 -0.0680866c0,-0.00231496 -0.0018937,-0.00420866 -0.0042126,-0.00420866z"></path><path class="fil0" d="M0.00342126 0.0194134c-0.00188189,0 -0.00342126,0.00153937 -0.00342126,0.00342126l0 0.0553268c0,0.00450394 0.00684252,0.0045 0.00684252,0l0 -0.0553268c0,-0.00188189 -0.00153937,-0.00342126 -0.00342126,-0.00342126z"></path><path class="fil0" d="M0.293394 0c-0.00310236,0 -0.00563386,0.0025315 -0.00563386,0.00562992l0 0.0910512c0,0.00740551 0.0112638,0.00740945 0.0112638,0l0 -0.0910512c0,-0.00309843 -0.0025315,-0.00562992 -0.00562992,-0.00562992z"></path><path class="fil0" d="M0.304925 0.012248c0.00231496,0 0.00420866,0.0018937 0.00420866,0.00420866l0 0.0680866c0,0.00554331 -0.00842126,0.00553937 -0.00842126,0l0 -0.0680866c0,-0.00231496 0.0018937,-0.00420866 0.0042126,-0.00420866z"></path><path class="fil0" d="M0.314689 0.0194134c0.00188189,0 0.00342126,0.00153937 0.00342126,0.00342126l0 0.0553268c0,0.00450394 -0.00684252,0.0045 -0.00684252,0l0 -0.0553268c0,-0.00188189 0.00153937,-0.00342126 0.00342126,-0.00342126z"></path></g></svg>