<svg xmlns:dc="http://purl.org/dc/elements/1.1/" xmlns:cc="http://creativecommons.org/ns#" xmlns:rdf="http://www.w3.org/1999/02/22-rdf-syntax-ns#" xmlns:svg="http://www.w3.org/2000/svg" xmlns="http://www.w3.org/2000/svg" xmlns:sodipodi="http://sodipodi.sourceforge.net/DTD/sodipodi-0.dtd" xmlns:inkscape="http://www.inkscape.org/namespaces/inkscape" viewBox="0 0 443.40201 655.28597" version="1.1" x="0px" y="0px"><g transform="translate(-155.145,-338.997)"><path style="" d="m 182.903,338.997 c -15.392,0 -27.758,12.488 -27.758,27.88 l 0,627.406 55.638,0 0,-584.98 45.819,0 0,70.909 c 0,4.655 1.45,9.184 4.241,12.971 l 61.459,84.366 0,144.002 0,7.635 0,159.398 c 0,11.296 9.009,20.364 20.242,20.364 l 6.302,0 c 11.233,0 20.364,-9.068 20.364,-20.364 l 0,-159.398 15.274,0 0,159.398 c 0,11.296 9.068,20.364 20.364,20.364 l 6.181,0 c 11.296,0 20.364,-9.068 20.364,-20.364 l 0,-159.398 0,-7.635 0,-144.002 61.334,-84.366 c 2.794,-3.787 4.244,-8.316 4.244,-12.971 l 0,-70.909 45.818,0 0,584.98 55.758,0 0,-627.406 c 0,-15.392 -12.487,-27.88 -27.879,-27.88 -15.39,0 -27.879,12.488 -27.879,27.88 l 0,19.031 -45.939,0 0,-2.061 c 0,-12.227 -9.835,-22.061 -22.061,-22.061 -12.228,0 -22.062,9.834 -22.062,22.061 l 0,2.061 -151.883,0 0,-2.061 c 0,-12.227 -9.832,-22.061 -22.061,-22.061 -12.225,0 -22.181,9.834 -22.181,22.061 l 0,2.061 -45.819,0 0,-19.031 c 0,-15.392 -12.488,-27.88 -27.88,-27.88 z m 117.821,70.306 151.882,0 0,63.636 -48.366,66.427 -55.15,0 -48.366,-66.427 0,-63.636 z m 76.002,14.908 a 49.897725,49.897725 0 0 0 -49.941,49.82 49.897725,49.897725 0 0 0 49.941,49.94 49.897725,49.897725 0 0 0 49.819,-49.94 49.897725,49.897725 0 0 0 -49.819,-49.82 z" fill="#000000"></path></g></svg>
