<svg xmlns="http://www.w3.org/2000/svg" viewBox="0 0 53.6 33.72" x="0px" y="0px"><title>barbells</title><path d="M110.47,528.36h-3.74a2,2,0,0,1-2-2v-9.93a2,2,0,0,1,2-2h3.74a2,2,0,0,1,2,2v9.93A2,2,0,0,1,110.47,528.36Zm28.31-2v-9.93a2,2,0,0,0-2-2H133a2,2,0,0,0-2,2v9.93a2,2,0,0,0,2,2h3.74A2,2,0,0,0,138.77,526.36ZM131,519.08H112.47v4.64H131v-4.64Z" transform="translate(-85.17 -495.14)"></path><path d="M98.82,525l-2,3a2,2,0,0,1-2.77.57l-8-5.3a2,2,0,0,1-.57-2.77l2-3a2,2,0,0,1,2.77-.57l8,5.3A2,2,0,0,1,98.82,525Zm13.61-24.22-8-5.3a2,2,0,0,0-2.77.57l-2,3a2,2,0,0,0,.57,2.77l8,5.3a2,2,0,0,0,2.77-.57l2-3A2,2,0,0,0,112.43,500.77Zm-10.07,2.41-10,15.14,3.79,2.5,10-15.14Z" transform="translate(-85.17 -495.14)"></path></svg>