<svg xmlns="http://www.w3.org/2000/svg" data-name="Lat Pull Down Machine" viewBox="0 0 40.83 52" x="0px" y="0px"><title>lat-pull-down</title><path d="M518.89,610h-13.8a0.93,0.93,0,0,1-.92-1.08l1.69-10.14a0.93,0.93,0,0,1,.92-0.78H517.2a0.93,0.93,0,0,1,.92.78l1.69,10.14A0.93,0.93,0,0,1,518.89,610Zm-4.9,0h-4v4h4v-4Zm4,4H506v4h12v-4Z" transform="translate(-491.6 -566)"></path><path d="M509,596h-4a1,1,0,0,1-1-1v-2a1,1,0,0,1,1-1h4a1,1,0,0,1,1,1v2A1,1,0,0,1,509,596Zm11-1v-2a1,1,0,0,0-1-1h-4a1,1,0,0,0-1,1v2a1,1,0,0,0,1,1h4A1,1,0,0,0,520,595Z" transform="translate(-491.6 -566)"></path><path d="M532.42,574.84l-0.85,1.81-7.8-3.66H513v25h-2V573H500.21l-7.81,3.42-0.8-1.83,8.19-3.58H511v-5h2v5h11.22Z" transform="translate(-491.6 -566)"></path></svg>